<svg width="223" height="206" viewBox="0 0 223 206" fill="none" xmlns="http://www.w3.org/2000/svg">
<g clip-path="url(#clip0_155_400)">
<line x1="-30.4583" y1="-0.458157" x2="240.468" y2="-271.384" stroke="#318565" stroke-width="1.2963"/>
<line x1="-30.4583" y1="8.61591" x2="240.468" y2="-262.31" stroke="#318565" stroke-width="1.2963"/>
<line x1="-30.4583" y1="17.69" x2="240.468" y2="-253.236" stroke="#318565" stroke-width="1.2963"/>
<line x1="-30.4583" y1="26.7641" x2="240.468" y2="-244.162" stroke="#318565" stroke-width="1.2963"/>
<line x1="-30.4583" y1="35.8381" x2="240.468" y2="-235.088" stroke="#318565" stroke-width="1.2963"/>
<line x1="-30.4583" y1="44.9122" x2="240.468" y2="-226.014" stroke="#318565" stroke-width="1.2963"/>
<line x1="-30.4583" y1="53.9863" x2="240.468" y2="-216.94" stroke="#318565" stroke-width="1.2963"/>
<line x1="-30.4583" y1="63.0604" x2="240.468" y2="-207.866" stroke="#318565" stroke-width="1.2963"/>
<line x1="-30.4583" y1="72.1344" x2="240.468" y2="-198.791" stroke="#318565" stroke-width="1.2963"/>
<line x1="-30.4583" y1="81.2085" x2="240.468" y2="-189.717" stroke="#318565" stroke-width="1.2963"/>
<line x1="-30.4583" y1="90.2826" x2="240.468" y2="-180.643" stroke="#318565" stroke-width="1.2963"/>
<line x1="-30.4583" y1="99.3567" x2="240.468" y2="-171.569" stroke="#318565" stroke-width="1.2963"/>
<line x1="-30.4583" y1="108.431" x2="240.468" y2="-162.495" stroke="#318565" stroke-width="1.2963"/>
<line x1="-30.4583" y1="117.505" x2="240.468" y2="-153.421" stroke="#318565" stroke-width="1.2963"/>
<line x1="-30.4583" y1="126.579" x2="240.468" y2="-144.347" stroke="#318565" stroke-width="1.2963"/>
<line x1="-30.4583" y1="135.653" x2="240.468" y2="-135.273" stroke="#318565" stroke-width="1.2963"/>
<line x1="-30.4583" y1="144.727" x2="240.468" y2="-126.199" stroke="#318565" stroke-width="1.2963"/>
<line x1="-30.4583" y1="153.801" x2="240.468" y2="-117.125" stroke="#318565" stroke-width="1.2963"/>
<line x1="-30.4583" y1="162.875" x2="240.468" y2="-108.051" stroke="#318565" stroke-width="1.2963"/>
<line x1="-30.4583" y1="171.949" x2="240.468" y2="-98.9767" stroke="#318565" stroke-width="1.2963"/>
<line x1="-30.4583" y1="181.023" x2="240.468" y2="-89.9026" stroke="#318565" stroke-width="1.2963"/>
<line x1="-30.4583" y1="190.097" x2="240.468" y2="-80.8285" stroke="#318565" stroke-width="1.2963"/>
<line x1="-30.4583" y1="199.171" x2="240.468" y2="-71.7544" stroke="#318565" stroke-width="1.2963"/>
<line x1="-30.4583" y1="208.246" x2="240.468" y2="-62.6801" stroke="#318565" stroke-width="1.2963"/>
<line x1="-30.4583" y1="217.32" x2="240.468" y2="-53.6063" stroke="#318565" stroke-width="1.2963"/>
<line x1="-30.4583" y1="226.394" x2="240.468" y2="-44.5322" stroke="#318565" stroke-width="1.2963"/>
<line x1="-30.4583" y1="235.468" x2="240.468" y2="-35.4581" stroke="#318565" stroke-width="1.2963"/>
<line x1="-30.4583" y1="244.542" x2="240.468" y2="-26.3841" stroke="#318565" stroke-width="1.2963"/>
<line x1="-30.4583" y1="253.616" x2="240.468" y2="-17.31" stroke="#318565" stroke-width="1.2963"/>
<line x1="-30.4583" y1="262.69" x2="240.468" y2="-8.23592" stroke="#318565" stroke-width="1.2963"/>
<line x1="-30.4583" y1="271.764" x2="240.468" y2="0.838115" stroke="#318565" stroke-width="1.2963"/>
<line x1="-30.4583" y1="280.838" x2="240.468" y2="9.91221" stroke="#318565" stroke-width="1.2963"/>
<line x1="-30.4583" y1="289.912" x2="240.468" y2="18.9863" stroke="#318565" stroke-width="1.2963"/>
<line x1="-30.4583" y1="298.986" x2="240.468" y2="28.0601" stroke="#318565" stroke-width="1.2963"/>
<line x1="-30.4583" y1="308.06" x2="240.468" y2="37.1344" stroke="#318565" stroke-width="1.2963"/>
<line x1="-30.4583" y1="317.134" x2="240.468" y2="46.2085" stroke="#318565" stroke-width="1.2963"/>
<line x1="-30.4583" y1="326.208" x2="240.468" y2="55.2826" stroke="#318565" stroke-width="1.2963"/>
<line x1="-30.4583" y1="335.283" x2="240.468" y2="64.3567" stroke="#318565" stroke-width="1.2963"/>
<line x1="-30.4583" y1="344.357" x2="240.468" y2="73.4307" stroke="#318565" stroke-width="1.2963"/>
<line x1="-30.4583" y1="353.431" x2="240.468" y2="82.5048" stroke="#318565" stroke-width="1.2963"/>
<line x1="-30.4583" y1="362.505" x2="240.468" y2="91.5787" stroke="#318565" stroke-width="1.2963"/>
<line x1="-30.4583" y1="371.579" x2="240.468" y2="100.653" stroke="#318565" stroke-width="1.2963"/>
<line x1="-30.4583" y1="380.653" x2="240.468" y2="109.727" stroke="#318565" stroke-width="1.2963"/>
<line x1="-30.4583" y1="389.727" x2="240.468" y2="118.801" stroke="#318565" stroke-width="1.2963"/>
<line x1="-30.4583" y1="398.801" x2="240.468" y2="127.875" stroke="#318565" stroke-width="1.2963"/>
<line x1="-30.4583" y1="407.875" x2="240.468" y2="136.949" stroke="#318565" stroke-width="1.2963"/>
<line x1="-30.4583" y1="416.949" x2="240.468" y2="146.023" stroke="#318565" stroke-width="1.2963"/>
<line x1="-30.4583" y1="426.023" x2="240.468" y2="155.097" stroke="#318565" stroke-width="1.2963"/>
<line x1="-30.4583" y1="435.097" x2="240.468" y2="164.171" stroke="#318565" stroke-width="1.2963"/>
<line x1="-30.4583" y1="444.171" x2="240.468" y2="173.246" stroke="#318565" stroke-width="1.2963"/>
<line x1="-30.4583" y1="453.246" x2="240.468" y2="182.32" stroke="#318565" stroke-width="1.2963"/>
<line x1="-30.4583" y1="462.32" x2="240.468" y2="191.394" stroke="#318565" stroke-width="1.2963"/>
<line x1="-30.4583" y1="471.394" x2="240.468" y2="200.468" stroke="#318565" stroke-width="1.2963"/>
</g>
<defs>
<clipPath id="clip0_155_400">
<rect width="223" height="206" fill="white"/>
</clipPath>
</defs>
</svg>
